<svg xmlns="http://www.w3.org/2000/svg" viewBox="0 0 512 512">
  <defs>
    <linearGradient id="cover" x1="0%" y1="0%" x2="100%" y2="100%">
      <stop offset="0%" style="stop-color:#0f6b4e"/>
      <stop offset="100%" style="stop-color:#0a4a35"/>
    </linearGradient>
    <linearGradient id="gold" x1="0%" y1="0%" x2="100%" y2="100%">
      <stop offset="0%" style="stop-color:#d4af37"/>
      <stop offset="100%" style="stop-color:#c8a84e"/>
    </linearGradient>
  </defs>
  <rect x="60" y="30" width="392" height="452" rx="20" ry="20" fill="url(#cover)" stroke="#0a4a35" stroke-width="3"/>
  <rect x="48" y="42" width="14" height="428" rx="7" fill="#0d5c43"/>
  <rect x="60" y="30" width="392" height="452" rx="20" ry="20" fill="none" stroke="#d4af37" stroke-width="4"/>
  <rect x="78" y="48" width="356" height="416" rx="14" ry="14" fill="none" stroke="#d4af37" stroke-width="3" opacity="0.8"/>
  <rect x="94" y="64" width="324" height="384" rx="10" ry="10" fill="none" stroke="#c8a84e" stroke-width="2" opacity="0.6"/>
  <line x1="256" y1="64" x2="256" y2="448" stroke="#c8a84e" stroke-width="1.5" opacity="0.35"/>
  <g transform="translate(256,130)">
    <polygon points="0,-50 13,-15.4 50,-15.4 21,5.9 32.4,40.5 0,19.2 -32.4,40.5 -21,5.9 -50,-15.4 -13,-15.4" fill="#d4af37" opacity="0.9"/>
  </g>
  <g transform="translate(160,100)">
    <path d="M0,0 Q15,-12 30,0" fill="none" stroke="#d4af37" stroke-width="2.5" opacity="0.7"/>
  </g>
  <g transform="translate(322,100)">
    <path d="M0,0 Q15,-12 30,0" fill="none" stroke="#d4af37" stroke-width="2.5" opacity="0.7"/>
  </g>
  <g transform="translate(130,170)">
    <circle cx="0" cy="0" r="4" fill="#d4af37" opacity="0.7"/>
  </g>
  <g transform="translate(382,170)">
    <circle cx="0" cy="0" r="4" fill="#d4af37" opacity="0.7"/>
  </g>
  <g transform="translate(130,330)">
    <circle cx="0" cy="0" r="4" fill="#d4af37" opacity="0.7"/>
  </g>
  <g transform="translate(382,330)">
    <circle cx="0" cy="0" r="4" fill="#d4af37" opacity="0.7"/>
  </g>
  <path d="M130,90 Q256,70 382,90" fill="none" stroke="#d4af37" stroke-width="2" opacity="0.6"/>
  <path d="M130,420 Q256,440 382,420" fill="none" stroke="#d4af37" stroke-width="2" opacity="0.6"/>
  <g transform="translate(130,90)">
    <path d="M0,0 L8,-8 L0,-4 L-8,-8 Z" fill="#d4af37" opacity="0.7"/>
  </g>
  <g transform="translate(382,90)">
    <path d="M0,0 L8,-8 L0,-4 L-8,-8 Z" fill="#d4af37" opacity="0.7"/>
  </g>
  <g transform="translate(130,420)">
    <path d="M0,0 L8,8 L0,4 L-8,8 Z" fill="#d4af37" opacity="0.7"/>
  </g>
  <g transform="translate(382,420)">
    <path d="M0,0 L8,8 L0,4 L-8,8 Z" fill="#d4af37" opacity="0.7"/>
  </g>
  <text x="256" y="260" text-anchor="middle" font-family="'Traditional Arabic','Arial'" font-weight="bold" font-size="160" fill="white">م</text>
  <line x1="150" y1="290" x2="362" y2="290" stroke="#d4af37" stroke-width="2" opacity="0.6"/>
  <text x="256" y="370" text-anchor="middle" font-family="'Traditional Arabic','Arial'" font-weight="bold" font-size="38" fill="#d4af37" letter-spacing="4">مُتْقِن</text>
  <line x1="165" y1="395" x2="347" y2="395" stroke="#d4af37" stroke-width="1.5" opacity="0.5"/>
  <text x="256" y="425" text-anchor="middle" font-family="'Traditional Arabic','Arial'" font-size="20" fill="#c8a84e" opacity="0.7">إدارة حلقات التحفيظ</text>
</svg>
