<svg xmlns="http://www.w3.org/2000/svg" viewBox="0 0 512 512">
  <defs>
    <linearGradient id="cover" x1="0%" y1="0%" x2="100%" y2="100%">
      <stop offset="0%" style="stop-color:#0f6b4e"/>
      <stop offset="100%" style="stop-color:#0a4a35"/>
    </linearGradient>
    <linearGradient id="gold" x1="0%" y1="0%" x2="100%" y2="100%">
      <stop offset="0%" style="stop-color:#d4af37"/>
      <stop offset="100%" style="stop-color:#b8943e"/>
    </linearGradient>
  </defs>
  <rect x="60" y="30" width="392" height="452" rx="20" ry="20" fill="url(#cover)" stroke="#0a4a35" stroke-width="3"/>
  <rect x="48" y="42" width="12" height="428" rx="6" fill="#0d5c43"/>
  <rect x="60" y="30" width="392" height="452" rx="20" ry="20" fill="none" stroke="url(#gold)" stroke-width="3"/>
  <rect x="80" y="50" width="352" height="412" rx="12" ry="12" fill="none" stroke="#c8a84e" stroke-width="2" opacity="0.5"/>
  <rect x="95" y="65" width="322" height="382" rx="8" ry="8" fill="none" stroke="#c8a84e" stroke-width="1" opacity="0.3"/>
  <line x1="256" y1="65" x2="256" y2="447" stroke="#c8a84e" stroke-width="1" opacity="0.2"/>
  <g transform="translate(256,200)">
    <polygon points="0,-55 14.3,-17 55,-17 23.1,6.5 35.7,44.5 0,21.1 -35.7,44.5 -23.1,6.5 -55,-17 -14.3,-17" fill="url(#gold)" opacity="0.6"/>
  </g>
  <text x="256" y="240" text-anchor="middle" font-family="'Traditional Arabic','Arial'" font-weight="bold" font-size="160" fill="white" opacity="0.95">م</text>
  <text x="256" y="370" text-anchor="middle" font-family="'Traditional Arabic','Arial'" font-weight="bold" font-size="36" fill="#c8a84e" opacity="0.9" letter-spacing="4">مُتْقِن</text>
  <line x1="160" y1="400" x2="352" y2="400" stroke="#c8a84e" stroke-width="1.5" opacity="0.4"/>
  <text x="256" y="430" text-anchor="middle" font-family="'Traditional Arabic','Arial'" font-size="18" fill="#c8a84e" opacity="0.5">إدارة حلقات التحفيظ</text>
</svg>
